<?xml version="1.0" encoding="UTF-8"?>
<svg id="Capa_2" xmlns="http://www.w3.org/2000/svg" viewBox="0 0 1810.36 183.01">
  <g id="Capa_1-2" data-name="Capa_1">
    <g>
      <path d="M104.17,35.85l-20.73,12.29c-3.88-6.73-7.57-11.12-11.08-13.17-3.65-2.34-8.37-3.51-14.14-3.51-7.1,0-12.97,2.01-17.65,6.03-4.68,3.96-7.02,8.92-7.02,14.92,0,8.27,6.14,14.92,18.41,19.95l16.89,6.91c13.75,5.56,23.8,12.34,30.16,20.35s9.53,17.81,9.53,29.44c0,15.57-5.18,28.44-15.56,38.6-10.46,10.23-23.43,15.35-38.93,15.35-14.69,0-26.82-4.35-36.41-13.05-9.42-8.7-15.31-20.95-17.65-36.73l25.88-5.7c1.17,9.94,3.21,16.81,6.14,20.61,5.26,7.32,12.93,10.97,23.03,10.97,7.96,0,14.59-2.67,19.85-8,5.27-5.34,7.9-12.1,7.9-20.29,0-3.29-.46-6.3-1.37-9.04-.92-2.75-2.34-5.26-4.28-7.57-1.93-2.3-4.44-4.46-7.5-6.47-3.08-2.01-6.73-3.93-10.97-5.76l-16.34-6.79C19.15,85.38,7.56,71.05,7.56,52.19c0-12.72,4.86-23.35,14.59-31.91,9.73-8.62,21.82-12.93,36.3-12.93,19.52,0,34.75,9.5,45.72,28.51Z"/>
      <path d="M130.92,94.52c0-23.83,8.74-44.3,26.21-61.4,17.4-17.11,38.31-25.67,62.73-25.67s44.8,8.63,62.06,25.88c17.32,17.26,25.98,37.98,25.98,62.18s-8.7,44.99-26.1,61.96c-17.47,17.03-38.56,25.55-63.27,25.55-21.86,0-41.48-7.57-58.88-22.7-19.15-16.74-28.73-38.68-28.73-65.79ZM156.69,94.85c0,18.72,6.28,34.09,18.86,46.16,12.5,12.07,26.93,18.1,43.31,18.1,17.77,0,32.75-6.14,44.96-18.43,12.21-12.42,18.31-27.56,18.31-45.4s-6.02-33.19-18.08-45.4c-11.99-12.28-26.82-18.43-44.51-18.43s-32.5,6.15-44.63,18.43c-12.13,12.13-18.2,27.13-18.2,44.96Z"/>
      <path d="M424.57,34.64h-58.99v40.69h56.91v24.01h-56.91v80.59h-25.55V10.63h84.53v24.01Z"/>
      <path d="M479.73,10.63v169.31h-25.55V10.63h25.55Z"/>
      <path d="M619.86,138.81h-72.48l-18.86,41.12h-27.52L584.76,0l80.82,179.94h-27.95l-17.77-41.12ZM609.43,114.8l-25.1-57.57-26.33,57.57h51.43Z"/>
      <path d="M881.16,19.74v30.25c-14.77-12.35-30.04-18.53-45.84-18.53-17.4,0-32.06,6.26-43.96,18.75-12,12.43-17.99,27.64-17.99,45.62s5.99,32.75,17.99,44.96c11.99,12.2,26.68,18.31,44.08,18.31,8.99,0,16.63-1.46,22.91-4.39,3.51-1.46,7.15-3.43,10.91-5.91,3.77-2.48,7.74-5.49,11.91-9v30.82c-14.63,8.25-29.98,12.39-46.05,12.39-24.2,0-44.86-8.45-61.96-25.34-17.03-17.03-25.55-37.56-25.55-61.61,0-21.57,7.12-40.8,21.38-57.68,17.55-20.69,40.24-31.03,68.09-31.03,15.21,0,29.9,4.13,44.08,12.39Z"/>
      <path d="M903.86,94.52c0-23.83,8.73-44.3,26.21-61.4,17.4-17.11,38.3-25.67,62.72-25.67s44.82,8.63,62.06,25.88c17.32,17.26,26,37.98,26,62.18s-8.7,44.99-26.1,61.96c-17.47,17.03-38.56,25.55-63.27,25.55-21.86,0-41.49-7.57-58.88-22.7-19.16-16.74-28.73-38.68-28.73-65.79ZM929.62,94.85c0,18.72,6.3,34.09,18.86,46.16,12.51,12.07,26.94,18.1,43.32,18.1,17.77,0,32.75-6.14,44.96-18.43,12.2-12.42,18.31-27.56,18.31-45.4s-6.03-33.19-18.1-45.4c-11.99-12.28-26.82-18.43-44.51-18.43s-32.49,6.15-44.63,18.43c-12.13,12.13-18.2,27.13-18.2,44.96Z"/>
      <path d="M1138.51,111.19v68.75h-25.55V10.63h28.95c14.18,0,24.89.99,32.12,2.96,7.31,1.98,13.75,5.7,19.31,11.18,9.71,9.52,14.58,21.5,14.58,35.97,0,15.5-5.19,27.78-15.56,36.84-10.38,9.07-24.38,13.6-42,13.6h-11.84ZM1138.51,87.51h9.54c23.46,0,35.2-9.03,35.2-27.09s-12.09-26.21-36.29-26.21h-8.45v53.29Z"/>
      <path d="M1259.79,111.19v68.75h-25.55V10.63h28.94c14.18,0,24.89.99,32.13,2.96,7.31,1.98,13.73,5.7,19.29,11.18,9.73,9.52,14.59,21.5,14.59,35.97,0,15.5-5.19,27.78-15.57,36.84-10.38,9.07-24.38,13.6-41.99,13.6h-11.84ZM1259.79,87.51h9.54c23.46,0,35.2-9.03,35.2-27.09s-12.1-26.21-36.3-26.21h-8.44v53.29Z"/>
      <path d="M1347.08,94.52c0-23.83,8.73-44.3,26.21-61.4,17.4-17.11,38.3-25.67,62.72-25.67s44.82,8.63,62.06,25.88c17.32,17.26,26,37.98,26,62.18s-8.7,44.99-26.1,61.96c-17.47,17.03-38.56,25.55-63.27,25.55-21.86,0-41.49-7.57-58.88-22.7-19.16-16.74-28.73-38.68-28.73-65.79ZM1372.84,94.85c0,18.72,6.3,34.09,18.86,46.16,12.51,12.07,26.94,18.1,43.32,18.1,17.77,0,32.75-6.14,44.96-18.43,12.2-12.42,18.31-27.56,18.31-45.4s-6.03-33.19-18.1-45.4c-11.99-12.28-26.82-18.43-44.51-18.43s-32.49,6.15-44.63,18.43c-12.13,12.13-18.2,27.13-18.2,44.96Z"/>
      <path d="M1581.73,10.63v145.29h49.79v24.01h-75.33V10.63h25.55Z"/>
      <path d="M1764.62,138.81h-72.47l-18.86,41.12h-27.53L1729.55,0l80.82,179.94h-27.97l-17.77-41.12ZM1754.21,114.8l-25.12-57.57-26.31,57.57h51.43Z"/>
    </g>
  </g>
</svg>